<?xml version="1.0" encoding="UTF-8" standalone="no"?>
<!-- Created with Inkscape (http://www.inkscape.org/) -->

<svg
   xmlns:dc="http://purl.org/dc/elements/1.1/"
   xmlns:cc="http://creativecommons.org/ns#"
   xmlns:rdf="http://www.w3.org/1999/02/22-rdf-syntax-ns#"
   xmlns:svg="http://www.w3.org/2000/svg"
   xmlns="http://www.w3.org/2000/svg"
   xmlns:sodipodi="http://sodipodi.sourceforge.net/DTD/sodipodi-0.dtd"
   xmlns:inkscape="http://www.inkscape.org/namespaces/inkscape"
   width="180.81934mm"
   height="134.64404mm"
   viewBox="0 0 180.81934 134.64404"
   version="1.1"
   id="svg8"
   inkscape:version="0.92.2 5c3e80d, 2017-08-06"
   sodipodi:docname="fanni.svg">
  <defs
     id="defs2" />
  <sodipodi:namedview
     id="base"
     pagecolor="#ffffff"
     bordercolor="#666666"
     borderopacity="1.0"
     inkscape:pageopacity="0.0"
     inkscape:pageshadow="2"
     inkscape:zoom="0.061871844"
     inkscape:cx="1404.5807"
     inkscape:cy="-2717.0879"
     inkscape:document-units="mm"
     inkscape:current-layer="layer1"
     showgrid="false"
     inkscape:window-width="1280"
     inkscape:window-height="755"
     inkscape:window-x="0"
     inkscape:window-y="1"
     inkscape:window-maximized="1"
     fit-margin-top="0"
     fit-margin-left="0"
     fit-margin-right="0"
     fit-margin-bottom="0" />
  <metadata
     id="metadata5">
    <rdf:RDF>
      <cc:Work
         rdf:about="">
        <dc:format>image/svg+xml</dc:format>
        <dc:type
           rdf:resource="http://purl.org/dc/dcmitype/StillImage" />
        <dc:title></dc:title>
      </cc:Work>
    </rdf:RDF>
  </metadata>
  <g
     inkscape:label="Layer 1"
     inkscape:groupmode="layer"
     id="layer1"
     transform="translate(-12.376567,-19.242981)">
    <g
       id="g965">
      <path
         id="path1515"
         d="m 87.852519,49.063155 -7.885824,7.885822 -16.132866,16.133384 -1.655196,1.655196 -1.680001,1.680001 -15.643489,15.642971 0.01963,1.124998 9.189619,-0.160716 a 49.101695,49.101695 0 0 0 0.596863,3.216859 49.101695,49.101695 0 0 0 0.134877,0.729155 49.101695,49.101695 0 0 0 0.685744,2.67167 49.101695,49.101695 0 0 0 0.240297,0.938445 l 4.592484,-4.592484 0.999422,-0.999424 0.961699,-0.961697 1.83038,-1.830379 10.771952,-10.771952 12.184784,-12.184787 7.885824,-7.885825 z m -32.701365,52.088805 -7.809859,3.3967 1.337386,3.07578 z"
         style="opacity:1;fill:#ffffff;fill-opacity:1;stroke:#000000;stroke-width:1;stroke-linecap:butt;stroke-linejoin:miter;stroke-miterlimit:4;stroke-dasharray:none;stroke-opacity:1"
         inkscape:connector-curvature="0" />
      <path
         id="path1513"
         d="m 118.3504,49.693607 -7.09569,12.29124 7.8853,7.885821 11.55434,11.554336 10.77246,10.772468 1.71153,1.711007 0.91726,0.917255 1.15083,1.151353 11.61531,11.615313 1.96164,-4.98058 -8.55142,-3.368783 a 49.101695,49.101695 0 0 0 0.0868,-0.40876 49.101695,49.101695 0 0 0 0.3576,-1.684136 49.101695,49.101695 0 0 0 0.60151,-2.947106 49.101695,49.101695 0 0 0 0.38654,-2.882511 l 8.13129,-0.141595 -14.76086,-14.760855 -1.95078,-1.950786 -1.65881,-1.658813 -15.22905,-15.229044 z"
         style="opacity:1;fill:#ffffff;fill-opacity:1;stroke:#000000;stroke-width:1;stroke-linecap:butt;stroke-linejoin:miter;stroke-miterlimit:4;stroke-dasharray:none;stroke-opacity:1"
         inkscape:connector-curvature="0" />
      <path
         id="path1680"
         d="m 102.78649,34.129699 -6.786667,6.786666 v 19.38693 48.860065 14.16865 H 109.70855 V 109.16336 60.438688 41.051757 Z"
         style="opacity:1;fill:#ffffff;fill-opacity:1;stroke:#000000;stroke-width:1;stroke-linecap:butt;stroke-linejoin:miter;stroke-miterlimit:4;stroke-dasharray:none;stroke-opacity:1"
         inkscape:connector-curvature="0" />
      <g
         id="g1757">
        <path
           style="opacity:1;fill:#ffffff;fill-opacity:1;stroke:none;stroke-width:1;stroke-miterlimit:4;stroke-dasharray:none;stroke-opacity:1"
           d="m 102.78622,65.901661 a 20.663396,20.663396 0 0 0 -1.46141,0.05168 20.663396,20.663396 0 0 0 -2.050514,0.249081 20.663396,20.663396 0 0 0 -2.015382,0.45217 20.663396,20.663396 0 0 0 -1.960086,0.651121 20.663396,20.663396 0 0 0 -1.885156,0.843878 20.663396,20.663396 0 0 0 -1.791624,1.027843 20.663396,20.663396 0 0 0 -1.680517,1.201478 20.663396,20.663396 0 0 0 -1.551326,1.363224 20.663396,20.663396 0 0 0 -1.408184,1.511019 20.663396,20.663396 0 0 0 -1.250053,1.644343 20.663396,20.663396 0 0 0 -1.079521,1.761133 20.663396,20.663396 0 0 0 -0.898136,1.859835 20.663396,20.663396 0 0 0 -0.708483,1.939933 20.663396,20.663396 0 0 0 -0.511079,2.001428 20.663396,20.663396 0 0 0 -0.30851,2.042252 20.663396,20.663396 0 0 0 -0.103351,2.062925 20.663396,20.663396 0 0 0 0.05168,1.46141 20.663396,20.663396 0 0 0 0.249082,2.050521 20.663396,20.663396 0 0 0 0.452167,2.015379 20.663396,20.663396 0 0 0 0.651124,1.960088 20.663396,20.663396 0 0 0 0.843875,1.885157 20.663396,20.663396 0 0 0 1.027846,1.79162 20.663396,20.663396 0 0 0 1.201475,1.680517 20.663396,20.663396 0 0 0 1.363226,1.551324 20.663396,20.663396 0 0 0 1.511017,1.40819 20.663396,20.663396 0 0 0 1.644346,1.25005 20.663396,20.663396 0 0 0 1.761133,1.07952 20.663396,20.663396 0 0 0 1.859833,0.89814 20.663396,20.663396 0 0 0 1.939932,0.70848 20.663396,20.663396 0 0 0 2.001431,0.51108 20.663396,20.663396 0 0 0 2.042245,0.30851 20.663396,20.663396 0 0 0 2.06293,0.10335 20.663396,20.663396 0 0 0 1.46141,-0.0517 20.663396,20.663396 0 0 0 2.05052,-0.24908 20.663396,20.663396 0 0 0 2.01538,-0.45217 20.663396,20.663396 0 0 0 1.96008,-0.65112 20.663396,20.663396 0 0 0 1.88516,-0.84388 20.663396,20.663396 0 0 0 1.79162,-1.02784 20.663396,20.663396 0 0 0 1.68052,-1.20148 20.663396,20.663396 0 0 0 1.55132,-1.36322 20.663396,20.663396 0 0 0 1.40818,-1.511021 20.663396,20.663396 0 0 0 1.25007,-1.644346 20.663396,20.663396 0 0 0 1.07952,-1.761133 20.663396,20.663396 0 0 0 0.89813,-1.859833 20.663396,20.663396 0 0 0 0.70848,-1.939933 20.663396,20.663396 0 0 0 0.51109,-2.00143 20.663396,20.663396 0 0 0 0.30851,-2.042252 20.663396,20.663396 0 0 0 0.10335,-2.062922 20.663396,20.663396 0 0 0 -0.0517,-1.46141 20.663396,20.663396 0 0 0 -0.24908,-2.050521 20.663396,20.663396 0 0 0 -0.45217,-2.015382 20.663396,20.663396 0 0 0 -0.65112,-1.960086 20.663396,20.663396 0 0 0 -0.84387,-1.885156 20.663396,20.663396 0 0 0 -1.02785,-1.791621 20.663396,20.663396 0 0 0 -1.20148,-1.680519 20.663396,20.663396 0 0 0 -1.36322,-1.551327 20.663396,20.663396 0 0 0 -1.51102,-1.408181 20.663396,20.663396 0 0 0 -1.64434,-1.250053 20.663396,20.663396 0 0 0 -1.76114,-1.079521 20.663396,20.663396 0 0 0 -1.85983,-0.898136 20.663396,20.663396 0 0 0 -1.93993,-0.708485 20.663396,20.663396 0 0 0 -2.00143,-0.51108 20.663396,20.663396 0 0 0 -2.04225,-0.308507 20.663396,20.663396 0 0 0 -2.06293,-0.103354 z m -0.0677,1.416968 a 19.245986,19.245986 0 0 1 1.36168,0.04806 19.245986,19.245986 0 0 1 1.90996,0.232026 19.245986,19.245986 0 0 1 1.87689,0.421164 19.245986,19.245986 0 0 1 1.82573,0.606682 19.245986,19.245986 0 0 1 1.75596,0.785997 19.245986,19.245986 0 0 1 1.66863,0.957048 19.245986,19.245986 0 0 1 1.56477,1.118796 19.245986,19.245986 0 0 1 1.44539,1.269688 19.245986,19.245986 0 0 1 1.31154,1.407668 19.245986,19.245986 0 0 1 1.16427,1.531689 19.245986,19.245986 0 0 1 1.00563,1.64021 19.245986,19.245986 0 0 1 0.83664,1.732193 19.245986,19.245986 0 0 1 0.65991,1.807125 19.245986,19.245986 0 0 1 0.47594,1.863969 19.245986,19.245986 0 0 1 0.28732,1.902211 19.245986,19.245986 0 0 1 0.0961,1.92133 19.245986,19.245986 0 0 1 -0.0481,1.362189 19.245986,19.245986 0 0 1 -0.23203,1.909961 19.245986,19.245986 0 0 1 -0.42116,1.876888 19.245986,19.245986 0 0 1 -0.60669,1.825728 19.245986,19.245986 0 0 1 -0.78599,1.755965 19.245986,19.245986 0 0 1 -0.95757,1.668632 19.245986,19.245986 0 0 1 -1.11879,1.564762 19.245986,19.245986 0 0 1 -1.26969,1.445392 19.245986,19.245986 0 0 1 -1.40767,1.311028 19.245986,19.245986 0 0 1 -1.53169,1.16427 19.245986,19.245986 0 0 1 -1.64021,1.00563 19.245986,19.245986 0 0 1 -1.73219,0.83664 19.245986,19.245986 0 0 1 -1.80713,0.65991 19.245986,19.245986 0 0 1 -1.86396,0.47593 19.245986,19.245986 0 0 1 -1.90222,0.28732 19.245986,19.245986 0 0 1 -1.92133,0.0961 19.245986,19.245986 0 0 1 -1.36167,-0.0481 19.245986,19.245986 0 0 1 -1.909956,-0.23202 19.245986,19.245986 0 0 1 -1.876888,-0.42117 19.245986,19.245986 0 0 1 -1.825728,-0.60668 19.245986,19.245986 0 0 1 -1.755966,-0.78599 19.245986,19.245986 0 0 1 -1.668632,-0.95757 19.245986,19.245986 0 0 1 -1.564761,-1.11879 19.245986,19.245986 0 0 1 -1.44539,-1.26969 19.245986,19.245986 0 0 1 -1.311031,-1.40767 19.245986,19.245986 0 0 1 -1.16427,-1.531689 19.245986,19.245986 0 0 1 -1.005623,-1.64021 19.245986,19.245986 0 0 1 -0.836642,-1.732193 19.245986,19.245986 0 0 1 -0.659908,-1.807125 19.245986,19.245986 0 0 1 -0.47594,-1.863968 19.245986,19.245986 0 0 1 -0.287322,-1.902212 19.245986,19.245986 0 0 1 -0.09612,-1.921327 19.245986,19.245986 0 0 1 0.04806,-1.36116 19.245986,19.245986 0 0 1 0.232027,-1.909961 19.245986,19.245986 0 0 1 0.421163,-1.876888 19.245986,19.245986 0 0 1 0.606682,-1.825728 19.245986,19.245986 0 0 1 0.785998,-1.755965 19.245986,19.245986 0 0 1 0.957048,-1.668632 19.245986,19.245986 0 0 1 1.118796,-1.564762 19.245986,19.245986 0 0 1 1.269688,-1.445389 19.245986,19.245986 0 0 1 1.407668,-1.311548 19.245986,19.245986 0 0 1 1.531688,-1.16427 19.245986,19.245986 0 0 1 1.640211,-1.005623 19.245986,19.245986 0 0 1 1.732192,-0.836641 19.245986,19.245986 0 0 1 1.807126,-0.659908 19.245986,19.245986 0 0 1 1.863968,-0.475941 19.245986,19.245986 0 0 1 1.902202,-0.287321 19.245986,19.245986 0 0 1 1.92133,-0.09612 z"
           id="path1712"
           inkscape:connector-curvature="0" />
        <path
           style="opacity:1;fill:#ffffff;fill-opacity:1;stroke:none;stroke-width:1;stroke-miterlimit:4;stroke-dasharray:none;stroke-opacity:1"
           d="m 102.66786,43.118567 5.2e-4,5.16e-4 a 43.622669,43.622669 0 0 0 -2.13476,0.0801 43.622669,43.622669 0 0 0 -1.837612,0.110585 43.622669,43.622669 0 0 0 -2.15956,0.282671 43.622669,43.622669 0 0 0 -0.16691,0.02325 43.622669,43.622669 0 0 0 -1.99575,0.322461 43.622669,43.622669 0 0 0 -2.19935,0.515731 43.622669,43.622669 0 0 0 -2.04483,0.543637 43.622669,43.622669 0 0 0 -1.99524,0.684712 43.622669,43.622669 0 0 0 -0.38549,0.14211 43.622669,43.622669 0 0 0 -1.73271,0.65164 43.622669,43.622669 0 0 0 -1.73324,0.795816 43.622669,43.622669 0 0 0 -1.90686,0.927593 43.622669,43.622669 0 0 0 -1.81074,1.043865 43.622669,43.622669 0 0 0 -1.9482,1.201992 43.622669,43.622669 0 0 0 -1.646928,1.182875 43.622669,43.622669 0 0 0 -1.862418,1.424718 43.622669,43.622669 0 0 0 -1.48725,1.312066 43.622669,43.622669 0 0 0 -1.743561,1.633493 43.622669,43.622669 0 0 0 -1.24282,1.339453 43.622669,43.622669 0 0 0 -1.373042,1.549257 43.622669,43.622669 0 0 0 -1.401463,1.82418 43.622669,43.622669 0 0 0 -1.215948,1.683618 43.622669,43.622669 0 0 0 -1.187009,1.914094 43.622669,43.622669 0 0 0 -1.060399,1.829863 43.622669,43.622669 0 0 0 -0.957564,1.955954 43.622669,43.622669 0 0 0 -0.04909,0.105936 43.622669,43.622669 0 0 0 -0.859896,1.898592 43.622669,43.622669 0 0 0 -0.688329,1.857767 43.622669,43.622669 0 0 0 -0.656291,1.896525 43.622669,43.622669 0 0 0 -0.572058,2.129586 43.622669,43.622669 0 0 0 -0.499195,2.104263 43.622669,43.622669 0 0 0 -0.350883,2.141471 43.622669,43.622669 0 0 0 -0.290938,2.17713 43.622669,43.622669 0 0 0 -0.128672,2.059823 43.622669,43.622669 0 0 0 -0.01344,0.32711 43.622669,43.622669 0 0 0 -0.06511,1.978692 43.622669,43.622669 0 0 0 0.07131,1.883605 43.622669,43.622669 0 0 0 0.06098,1.026811 43.622669,43.622669 0 0 0 0.0956,1.426268 43.622669,43.622669 0 0 0 0.236162,1.707391 43.622669,43.622669 0 0 0 0.176215,1.09089 43.622669,43.622669 0 0 0 0.257349,1.543058 43.622669,43.622669 0 0 0 0.35605,1.470711 43.622669,43.622669 0 0 0 0.389642,1.464511 43.622669,43.622669 0 0 0 0.358116,1.318781 43.622669,43.622669 0 0 0 0.433049,1.234032 43.622669,43.622669 0 0 0 0.651639,1.73219 43.622669,43.622669 0 0 0 0.442868,1.15704 43.622669,43.622669 0 0 0 0.346231,0.74104 43.622669,43.622669 0 0 0 0.425299,0.87436 43.622669,43.622669 0 0 0 0.546219,1.10485 43.622669,43.622669 0 0 0 0.6165,1.22679 43.622669,43.622669 0 0 0 0.0041,0.007 43.622669,43.622669 0 0 0 0.350885,0.57878 43.622669,43.622669 0 0 0 0.425813,0.6904 43.622669,43.622669 0 0 0 1.13688,1.82004 43.622669,43.622669 0 0 0 0.324011,0.5116 43.622669,43.622669 0 0 0 0.08837,0.11937 43.622669,43.622669 0 0 0 0.650606,0.86455 43.622669,43.622669 0 0 0 0.34985,0.45682 43.622669,43.622669 0 0 0 1.412833,1.82831 43.622669,43.622669 0 0 0 0.07855,0.0992 43.622669,43.622669 0 0 0 0.305925,0.33693 43.622669,43.622669 0 0 0 0.885732,0.96015 43.622669,43.622669 0 0 0 0.22996,0.24649 43.622669,43.622669 0 0 0 1.492417,1.57562 43.622669,43.622669 0 0 0 0.646472,0.58239 43.622669,43.622669 0 0 0 1.084173,0.9617 43.622669,43.622669 0 0 0 1.488281,1.28519 43.622669,43.622669 0 0 0 0.944126,0.6935 43.622669,43.622669 0 0 0 0.956532,0.69091 43.622669,43.622669 0 0 0 0.504362,0.36019 43.622669,43.622669 0 0 0 1.070737,0.75241 43.622669,43.622669 0 0 0 1.26556,0.74776 43.622669,43.622669 0 0 0 1.0082,0.58446 43.622669,43.622669 0 0 0 0.76378,0.43718 43.622669,43.622669 0 0 0 0.67438,0.3793 43.622669,43.622669 0 0 0 1.61437,0.74621 43.622669,43.622669 0 0 0 0.97927,0.4439 43.622669,43.622669 0 0 0 1.05885,0.47284 43.622669,43.622669 0 0 0 0.22169,0.0966 43.622669,43.622669 0 0 0 0.20412,0.0724 43.622669,43.622669 0 0 0 2.19935,0.76016 43.622669,43.622669 0 0 0 0.27751,0.0941 43.622669,43.622669 0 0 0 1.33015,0.4408 43.622669,43.622669 0 0 0 0.72864,0.17829 43.622669,43.622669 0 0 0 1.75493,0.41651 43.622669,43.622669 0 0 0 1.01027,0.23358 43.622669,43.622669 0 0 0 0.66559,0.14882 43.622669,43.622669 0 0 0 1.27538,0.17984 43.622669,43.622669 0 0 0 1.47691,0.1974 43.622669,43.622669 0 0 0 1.26194,0.16123 43.622669,43.622669 0 0 0 0.22376,0.0274 43.622669,43.622669 0 0 0 1.779732,0.0713 43.622669,43.622669 0 0 0 1.22629,0.0403 43.622669,43.622669 0 0 0 1.28571,0.0346 43.622669,43.622669 0 0 0 2.41225,-0.14366 43.622669,43.622669 0 0 0 0.57154,-0.0388 43.622669,43.622669 0 0 0 1.31155,-0.0951 43.622669,43.622669 0 0 0 0.0558,-0.009 43.622669,43.622669 0 0 0 2.2164,-0.35708 43.622669,43.622669 0 0 0 1.32085,-0.22014 43.622669,43.622669 0 0 0 0.62322,-0.10904 43.622669,43.622669 0 0 0 0.57826,-0.14935 43.622669,43.622669 0 0 0 1.9234,-0.51108 43.622669,43.622669 0 0 0 1.46451,-0.39842 43.622669,43.622669 0 0 0 0.16174,-0.045 43.622669,43.622669 0 0 0 0.98547,-0.36225 43.622669,43.622669 0 0 0 1.67432,-0.62994 43.622669,43.622669 0 0 0 1.34927,-0.51676 43.622669,43.622669 0 0 0 0.20981,-0.0997 43.622669,43.622669 0 0 0 1.28002,-0.62219 43.622669,43.622669 0 0 0 1.08831,-0.53847 43.622669,43.622669 0 0 0 1.24644,-0.62631 43.622669,43.622669 0 0 0 0.61701,-0.37414 43.622669,43.622669 0 0 0 0.63459,-0.39119 43.622669,43.622669 0 0 0 1.80351,-1.12603 43.622669,43.622669 0 0 0 0.57154,-0.36277 43.622669,43.622669 0 0 0 0.96376,-0.72554 43.622669,43.622669 0 0 0 0.45785,-0.34985 43.622669,43.622669 0 0 0 1.82677,-1.41231 43.622669,43.622669 0 0 0 0.13952,-0.10956 43.622669,43.622669 0 0 0 1.26297,-1.1653 43.622669,43.622669 0 0 0 0.2248,-0.21084 43.622669,43.622669 0 0 0 1.65106,-1.56321 43.622669,43.622669 0 0 0 1.50482,-1.69654 43.622669,43.622669 0 0 0 1.32343,-1.53169 43.622669,43.622669 0 0 0 0.1018,-0.13953 43.622669,43.622669 0 0 0 1.24489,-1.72289 43.622669,43.622669 0 0 0 0.35967,-0.50333 43.622669,43.622669 0 0 0 0.77514,-1.10226 43.622669,43.622669 0 0 0 0.36794,-0.62476 43.622669,43.622669 0 0 0 0.94774,-1.63401 43.622669,43.622669 0 0 0 0.3974,-0.69453 43.622669,43.622669 0 0 0 0.41651,-0.74104 43.622669,43.622669 0 0 0 0.54467,-1.17822 43.622669,43.622669 0 0 0 0.65319,-1.44074 43.622669,43.622669 0 0 0 0.42633,-0.95498 43.622669,43.622669 0 0 0 0.13694,-0.31316 43.622669,43.622669 0 0 0 0.67128,-1.94304 43.622669,43.622669 0 0 0 0.25011,-0.740002 43.622669,43.622669 0 0 0 0.45114,-1.362708 43.622669,43.622669 0 0 0 0.0393,-0.160713 43.622669,43.622669 0 0 0 0.41031,-1.730126 43.622669,43.622669 0 0 0 0.35088,-1.516187 43.622669,43.622669 0 0 0 0.1664,-0.743625 43.622669,43.622669 0 0 0 0.10026,-0.713134 43.622669,43.622669 0 0 0 0.2191,-1.645377 43.622669,43.622669 0 0 0 0.20464,-1.599385 43.622669,43.622669 0 0 0 0.0331,-0.274921 43.622669,43.622669 0 0 0 0.0486,-1.215946 43.622669,43.622669 0 0 0 0.046,-1.399913 43.622669,43.622669 0 0 0 0.0444,-1.645377 43.622669,43.622669 0 0 0 -0.015,-0.284221 43.622669,43.622669 0 0 0 -0.11937,-1.984375 43.622669,43.622669 0 0 0 -0.0982,-1.347721 43.622669,43.622669 0 0 0 -0.26975,-2.058789 43.622669,43.622669 0 0 0 -0.19895,-1.23145 43.622669,43.622669 0 0 0 -0.16847,-0.966349 43.622669,43.622669 0 0 0 -0.47594,-2.028817 43.622669,43.622669 0 0 0 -0.42323,-1.592151 43.622669,43.622669 0 0 0 -0.15244,-0.545187 43.622669,43.622669 0 0 0 -0.65475,-1.908411 43.622669,43.622669 0 0 0 -0.14469,-0.394808 43.622669,43.622669 0 0 0 -0.60513,-1.605585 43.622669,43.622669 0 0 0 -0.0527,-0.135392 43.622669,43.622669 0 0 0 -0.78807,-1.716691 43.622669,43.622669 0 0 0 -0.89038,-1.830898 43.622669,43.622669 0 0 0 -0.0501,-0.09715 43.622669,43.622669 0 0 0 -1.02372,-1.775087 43.622669,43.622669 0 0 0 -1.20509,-1.954403 43.622669,43.622669 0 0 0 -1.17822,-1.64021 43.622669,43.622669 0 0 0 -1.42937,-1.869136 43.622669,43.622669 0 0 0 -1.31155,-1.48673 43.622669,43.622669 0 0 0 -1.63349,-1.744081 43.622669,43.622669 0 0 0 -1.34359,-1.246433 43.622669,43.622669 0 0 0 -1.54564,-1.369944 43.622669,43.622669 0 0 0 -1.8247,-1.401982 43.622669,43.622669 0 0 0 -1.68362,-1.21543 43.622669,43.622669 0 0 0 -1.91409,-1.187005 43.622669,43.622669 0 0 0 -1.82986,-1.060919 43.622669,43.622669 0 0 0 -1.98283,-0.970483 43.622669,43.622669 0 0 0 -1.97817,-0.895551 43.622669,43.622669 0 0 0 -1.99523,-0.740008 43.622669,43.622669 0 0 0 -1.71824,-0.593246 43.622669,43.622669 0 0 0 -2.24121,-0.602546 43.622669,43.622669 0 0 0 -0.0238,-0.0062 43.622669,43.622669 0 0 0 -1.9792,-0.468704 43.622669,43.622669 0 0 0 -2.2531,-0.36897 43.622669,43.622669 0 0 0 -2.07326,-0.276987 43.622669,43.622669 0 0 0 -2.23345,-0.139525 43.622669,43.622669 0 0 0 -2.13114,-0.06925 z m 0.047,1.260388 a 42.255286,42.255286 0 0 1 0.29662,0.0021 42.255286,42.255286 0 0 1 4.21628,0.252698 42.255286,42.255286 0 0 1 4.16977,0.672828 42.255286,42.255286 0 0 1 4.08192,1.08572 42.255286,42.255286 0 0 1 3.95325,1.487766 l 0.0475,-0.08217 a 42.255286,42.255286 0 0 1 2.13114,0.993738 42.255286,42.255286 0 0 1 3.67729,2.077395 42.255286,42.255286 0 0 1 3.45198,2.43396 l -0.0243,0.04186 a 42.255286,42.255286 0 0 1 2.73575,2.335257 42.255286,42.255286 0 0 1 2.94556,3.027207 42.255286,42.255286 0 0 1 2.62826,3.306773 42.255286,42.255286 0 0 1 2.28514,3.551722 42.255286,42.255286 0 0 1 1.91927,3.76256 42.255286,42.255286 0 0 1 1.53427,3.935677 42.255286,42.255286 0 0 1 1.13326,4.069003 42.255286,42.255286 0 0 1 0.72141,4.161504 h 0.1173 a 42.255286,42.255286 0 0 1 0.11214,0.92139 42.255286,42.255286 0 0 1 0.25477,4.216281 42.255286,42.255286 0 0 1 -0.0362,1.428853 42.255286,42.255286 0 0 1 -0.38861,4.205944 h -0.13539 a 42.255286,42.255286 0 0 1 -0.52193,3.028757 42.255286,42.255286 0 0 1 -1.07435,4.085021 42.255286,42.255286 0 0 1 -1.47641,3.957381 42.255286,42.255286 0 0 1 -1.86396,3.78995 42.255286,42.255286 0 0 1 -2.23295,3.58531 42.255286,42.255286 0 0 1 -2.5802,3.34398 42.255286,42.255286 0 0 1 -2.90059,3.0701 42.255286,42.255286 0 0 1 -3.1931,2.7652 l 0.0558,0.0961 a 42.255286,42.255286 0 0 1 -1.89911,1.38441 42.255286,42.255286 0 0 1 -3.59668,2.21537 42.255286,42.255286 0 0 1 -3.79925,1.84485 l -0.009,-0.0155 a 42.255286,42.255286 0 0 1 -0.28474,0.12196 42.255286,42.255286 0 0 1 -3.96668,1.45159 42.255286,42.255286 0 0 1 -4.09122,1.04851 42.255286,42.255286 0 0 1 -4.17598,0.63511 42.255286,42.255286 0 0 1 -4.21834,0.21445 42.255286,42.255286 0 0 1 -2.988972,-0.10593 42.255286,42.255286 0 0 1 -4.19302,-0.50902 42.255286,42.255286 0 0 1 -4.1212,-0.925 42.255286,42.255286 0 0 1 -4.00854,-1.33171 42.255286,42.255286 0 0 1 -3.85506,-1.72547 42.255286,42.255286 0 0 1 -3.66386,-2.10168 42.255286,42.255286 0 0 1 -3.435453,-2.4567 42.255286,42.255286 0 0 1 -3.173449,-2.78794 42.255286,42.255286 0 0 1 -2.878894,-3.09025 42.255286,42.255286 0 0 1 -2.556434,-3.36259 42.255286,42.255286 0 0 1 -2.207617,-3.60081 42.255286,42.255286 0 0 1 -1.837097,-3.80339 42.255286,42.255286 0 0 1 -1.448491,-3.967712 42.255286,42.255286 0 0 1 -1.044897,-4.092257 42.255286,42.255286 0 0 1 -0.630971,-4.176488 42.255286,42.255286 0 0 1 -0.211354,-4.218347 42.255286,42.255286 0 0 1 0.105936,-2.988966 42.255286,42.255286 0 0 1 0.509011,-4.193024 42.255286,42.255286 0 0 1 0.92501,-4.121198 42.255286,42.255286 0 0 1 1.331701,-4.008541 42.255286,42.255286 0 0 1 1.725477,-3.855061 42.255286,42.255286 0 0 1 2.101678,-3.663857 42.255286,42.255286 0 0 1 2.456699,-3.435451 42.255286,42.255286 0 0 1 2.787943,-3.173449 42.255286,42.255286 0 0 1 3.090252,-2.878894 42.255286,42.255286 0 0 1 3.362584,-2.556434 42.255286,42.255286 0 0 1 3.600816,-2.207617 42.255286,42.255286 0 0 1 3.80339,-1.837097 42.255286,42.255286 0 0 1 3.96771,-1.448491 42.255286,42.255286 0 0 1 4.09226,-1.044897 42.255286,42.255286 0 0 1 4.17649,-0.630968 42.255286,42.255286 0 0 1 4.218352,-0.211357 z"
           id="path1702"
           inkscape:connector-curvature="0" />
        <path
           style="opacity:1;fill:#000000;fill-opacity:1;stroke:none;stroke-width:0.27718699;stroke-opacity:1"
           d="m 107.38098,28.45721 -11.224116,0.19585 0.16123,9.21908 a 49.101695,49.101695 0 0 0 -0.0873,0.016 49.101695,49.101695 0 0 0 -7.77213,1.6614 l -3.66489,-8.42895 -10.29498,4.47622 3.67729,8.45581 a 49.101695,49.101695 0 0 0 -1.59887,1.04077 49.101695,49.101695 0 0 0 -5.01726,3.5202 l -6.61148,-6.38463 -7.79849,8.07548 6.63267,6.40477 a 49.101695,49.101695 0 0 0 -0.0532,0.078 49.101695,49.101695 0 0 0 -1.82418,2.62051 49.101695,49.101695 0 0 0 -0.14108,0.20877 49.101695,49.101695 0 0 0 -0.82579,1.34669 49.101695,49.101695 0 0 0 -0.14779,0.24081 49.101695,49.101695 0 0 0 -1.37821,2.24793 l -8.55193,-3.36827 -4.11397,10.44432 8.57881,3.37964 a 49.101695,49.101695 0 0 0 -0.4439,2.08876 49.101695,49.101695 0 0 0 -0.47439,2.23191 49.101695,49.101695 0 0 0 -0.21291,1.49499 49.101695,49.101695 0 0 0 -0.29611,2.0774 l -9.21959,0.16071 0.19637,11.22412 9.18962,-0.16071 a 49.101695,49.101695 0 0 0 0.59687,3.21686 49.101695,49.101695 0 0 0 0.13487,0.72915 49.101695,49.101695 0 0 0 0.68575,2.67167 49.101695,49.101695 0 0 0 0.31471,1.22887 l -8.4553,3.67729 4.47621,10.29446 8.42894,-3.66489 a 49.101695,49.101695 0 0 0 1.67587,2.5802 49.101695,49.101695 0 0 0 0.55036,0.84646 49.101695,49.101695 0 0 0 1.52342,2.02986 49.101695,49.101695 0 0 0 0.85007,1.13273 l -6.40529,6.63267 8.07444,7.79798 6.38514,-6.61149 a 49.101695,49.101695 0 0 0 2.69751,1.85312 49.101695,49.101695 0 0 0 0.6103,0.41961 49.101695,49.101695 0 0 0 2.37505,1.40508 49.101695,49.101695 0 0 0 1.09089,0.64544 l -3.37912,8.57933 10.44432,4.11396 3.36879,-8.55142 a 49.101695,49.101695 0 0 0 2.46031,0.51056 49.101695,49.101695 0 0 0 1.41232,0.29353 49.101695,49.101695 0 0 0 2.22363,0.32917 49.101695,49.101695 0 0 0 1.81643,0.2682 l 0.16072,9.2196 11.224116,-0.19586 -0.16072,-9.19013 a 49.101695,49.101695 0 0 0 3.20394,-0.59428 49.101695,49.101695 0 0 0 0.74828,-0.13901 49.101695,49.101695 0 0 0 2.65875,-0.68161 49.101695,49.101695 0 0 0 1.23558,-0.3173 l 3.6773,8.4553 10.29446,-4.47621 -3.66489,-8.42894 a 49.101695,49.101695 0 0 0 4.87825,-3.29851 49.101695,49.101695 0 0 0 1.71101,-1.30121 l 6.63267,6.40529 7.79797,-8.07444 -6.61148,-6.38513 a 49.101695,49.101695 0 0 0 1.85208,-2.69596 49.101695,49.101695 0 0 0 0.42065,-0.61185 49.101695,49.101695 0 0 0 1.40508,-2.37505 49.101695,49.101695 0 0 0 0.64544,-1.09089 l 8.57933,3.37912 4.11396,-10.44432 -8.55143,-3.36879 a 49.101695,49.101695 0 0 0 0.0868,-0.40876 49.101695,49.101695 0 0 0 0.3576,-1.68413 49.101695,49.101695 0 0 0 0.60152,-2.94711 49.101695,49.101695 0 0 0 0.38654,-2.88251 l 9.18963,-0.1602 -0.19585,-11.22412 -9.21909,0.16123 a 49.101695,49.101695 0 0 0 -0.017,-0.0925 49.101695,49.101695 0 0 0 -1.66036,-7.76645 l 8.42895,-3.66489 -4.47622,-10.29498 -8.45634,3.67678 a 49.101695,49.101695 0 0 0 -0.0791,-0.12196 49.101695,49.101695 0 0 0 -4.48138,-6.49418 l 6.38411,-6.61096 -8.07445,-7.79849 -6.40529,6.63267 a 49.101695,49.101695 0 0 0 -0.078,-0.0532 49.101695,49.101695 0 0 0 -6.66523,-4.31705 l 3.36879,-8.55193 -10.44484,-4.11396 -3.37912,8.5788 a 49.101695,49.101695 0 0 0 -0.0341,-0.007 49.101695,49.101695 0 0 0 -7.86774,-1.45107 z m -4.70824,14.59188 a 43.622669,43.622669 0 0 1 2.13114,0.0692 43.622669,43.622669 0 0 1 2.23346,0.13953 43.622669,43.622669 0 0 1 2.07377,0.27699 43.622669,43.622669 0 0 1 2.25258,0.36897 43.622669,43.622669 0 0 1 1.9792,0.4687 43.622669,43.622669 0 0 1 0.0238,0.006 43.622669,43.622669 0 0 1 2.24121,0.60255 43.622669,43.622669 0 0 1 1.71824,0.59324 43.622669,43.622669 0 0 1 1.99575,0.74001 43.622669,43.622669 0 0 1 1.97765,0.89555 43.622669,43.622669 0 0 1 1.98283,0.97049 43.622669,43.622669 0 0 1 1.82986,1.06092 43.622669,43.622669 0 0 1 1.91409,1.187 43.622669,43.622669 0 0 1 1.68362,1.21543 43.622669,43.622669 0 0 1 1.8247,1.40198 43.622669,43.622669 0 0 1 1.54564,1.36995 43.622669,43.622669 0 0 1 1.34359,1.24643 43.622669,43.622669 0 0 1 1.63349,1.74408 43.622669,43.622669 0 0 1 1.31155,1.48673 43.622669,43.622669 0 0 1 1.42937,1.86914 43.622669,43.622669 0 0 1 1.17822,1.64021 43.622669,43.622669 0 0 1 1.20509,1.9544 43.622669,43.622669 0 0 1 1.02371,1.77509 43.622669,43.622669 0 0 1 0.0501,0.0971 43.622669,43.622669 0 0 1 0.89039,1.83089 43.622669,43.622669 0 0 1 0.78806,1.7167 43.622669,43.622669 0 0 1 0.0532,0.13539 43.622669,43.622669 0 0 1 0.60461,1.60558 43.622669,43.622669 0 0 1 0.1447,0.39481 43.622669,43.622669 0 0 1 0.65474,1.90841 43.622669,43.622669 0 0 1 0.15245,0.54519 43.622669,43.622669 0 0 1 0.42323,1.59215 43.622669,43.622669 0 0 1 0.47594,2.02882 43.622669,43.622669 0 0 1 0.16898,0.96634 43.622669,43.622669 0 0 1 0.19844,1.23146 43.622669,43.622669 0 0 1 0.26975,2.05878 43.622669,43.622669 0 0 1 0.0987,1.34773 43.622669,43.622669 0 0 1 0.11937,1.98437 43.622669,43.622669 0 0 1 0.0145,0.28422 43.622669,43.622669 0 0 1 -0.0444,1.64538 43.622669,43.622669 0 0 1 -0.046,1.39991 43.622669,43.622669 0 0 1 -0.0486,1.21595 43.622669,43.622669 0 0 1 -0.0331,0.27492 43.622669,43.622669 0 0 1 -0.20464,1.59938 43.622669,43.622669 0 0 1 -0.21911,1.64538 43.622669,43.622669 0 0 1 -0.10025,0.71313 43.622669,43.622669 0 0 1 -0.1664,0.74363 43.622669,43.622669 0 0 1 -0.35088,1.51619 43.622669,43.622669 0 0 1 -0.41031,1.73012 43.622669,43.622669 0 0 1 -0.0388,0.16072 43.622669,43.622669 0 0 1 -0.45166,1.3627 43.622669,43.622669 0 0 1 -0.25011,0.74001 43.622669,43.622669 0 0 1 -0.67128,1.94303 43.622669,43.622669 0 0 1 -0.13694,0.31316 43.622669,43.622669 0 0 1 -0.42633,0.95498 43.622669,43.622669 0 0 1 -0.65319,1.44074 43.622669,43.622669 0 0 1 -0.54415,1.17822 43.622669,43.622669 0 0 1 -0.41703,0.74104 43.622669,43.622669 0 0 1 -0.39739,0.69454 43.622669,43.622669 0 0 1 -0.94775,1.63401 43.622669,43.622669 0 0 1 -0.36794,0.62476 43.622669,43.622669 0 0 1 -0.77514,1.10226 43.622669,43.622669 0 0 1 -0.35915,0.50333 43.622669,43.622669 0 0 1 -1.24541,1.72289 43.622669,43.622669 0 0 1 -0.1018,0.13953 43.622669,43.622669 0 0 1 -1.32343,1.53169 43.622669,43.622669 0 0 1 -1.50482,1.69654 43.622669,43.622669 0 0 1 -1.65054,1.5632 43.622669,43.622669 0 0 1 -0.2248,0.21084 43.622669,43.622669 0 0 1 -1.26297,1.1653 43.622669,43.622669 0 0 1 -0.14004,0.10955 43.622669,43.622669 0 0 1 -1.82676,1.41232 43.622669,43.622669 0 0 1 -0.45786,0.34985 43.622669,43.622669 0 0 1 -0.96376,0.72554 43.622669,43.622669 0 0 1 -0.57154,0.36277 43.622669,43.622669 0 0 1 -1.80351,1.12603 43.622669,43.622669 0 0 1 -0.63459,0.39119 43.622669,43.622669 0 0 1 -0.61701,0.37413 43.622669,43.622669 0 0 1 -1.24644,0.62632 43.622669,43.622669 0 0 1 -1.0883,0.53847 43.622669,43.622669 0 0 1 -1.28003,0.62219 43.622669,43.622669 0 0 1 -0.20981,0.0997 43.622669,43.622669 0 0 1 -1.34927,0.51676 43.622669,43.622669 0 0 1 -1.67431,0.62994 43.622669,43.622669 0 0 1 -0.98547,0.36225 43.622669,43.622669 0 0 1 -0.16175,0.045 43.622669,43.622669 0 0 1 -1.46451,0.39843 43.622669,43.622669 0 0 1 -1.9234,0.51108 43.622669,43.622669 0 0 1 -0.57826,0.14934 43.622669,43.622669 0 0 1 -0.62322,0.10904 43.622669,43.622669 0 0 1 -1.32085,0.22014 43.622669,43.622669 0 0 1 -2.2164,0.35708 43.622669,43.622669 0 0 1 -0.0558,0.009 43.622669,43.622669 0 0 1 -1.31154,0.0951 43.622669,43.622669 0 0 1 -0.57154,0.0388 43.622669,43.622669 0 0 1 -2.41226,0.14366 43.622669,43.622669 0 0 1 -1.28519,-0.0346 43.622669,43.622669 0 0 1 -1.2268,-0.0403 43.622669,43.622669 0 0 1 -1.779737,-0.0713 43.622669,43.622669 0 0 1 -0.22376,-0.0274 43.622669,43.622669 0 0 1 -1.261939,-0.16122 43.622669,43.622669 0 0 1 -1.47691,-0.19741 43.622669,43.622669 0 0 1 -1.27485,-0.17983 43.622669,43.622669 0 0 1 -0.66611,-0.14883 43.622669,43.622669 0 0 1 -1.01028,-0.23358 43.622669,43.622669 0 0 1 -1.75441,-0.41651 43.622669,43.622669 0 0 1 -0.72916,-0.17828 43.622669,43.622669 0 0 1 -1.33015,-0.44081 43.622669,43.622669 0 0 1 -0.2775,-0.0941 43.622669,43.622669 0 0 1 -2.19935,-0.76015 43.622669,43.622669 0 0 1 -0.20412,-0.0724 43.622669,43.622669 0 0 1 -0.22118,-0.0966 43.622669,43.622669 0 0 1 -1.05936,-0.47284 43.622669,43.622669 0 0 1 -0.97927,-0.4439 43.622669,43.622669 0 0 1 -1.61437,-0.7462 43.622669,43.622669 0 0 1 -0.67438,-0.37931 43.622669,43.622669 0 0 1 -0.76378,-0.43718 43.622669,43.622669 0 0 1 -1.0082,-0.58446 43.622669,43.622669 0 0 1 -1.26556,-0.74776 43.622669,43.622669 0 0 1 -1.07074,-0.75241 43.622669,43.622669 0 0 1 -0.50436,-0.36018 43.622669,43.622669 0 0 1 -0.95653,-0.69092 43.622669,43.622669 0 0 1 -0.94413,-0.6935 43.622669,43.622669 0 0 1 -1.48776,-1.28519 43.622669,43.622669 0 0 1 -1.08469,-0.9617 43.622669,43.622669 0 0 1 -0.64647,-0.58239 43.622669,43.622669 0 0 1 -1.49242,-1.5756 43.622669,43.622669 0 0 1 -0.22996,-0.2465 43.622669,43.622669 0 0 1 -0.88573,-0.96015 43.622669,43.622669 0 0 1 -0.30593,-0.33693 43.622669,43.622669 0 0 1 -0.0785,-0.0992 43.622669,43.622669 0 0 1 -1.41283,-1.82831 43.622669,43.622669 0 0 1 -0.34933,-0.45682 43.622669,43.622669 0 0 1 -0.65113,-0.86455 43.622669,43.622669 0 0 1 -0.0884,-0.11937 43.622669,43.622669 0 0 1 -0.32401,-0.5116 43.622669,43.622669 0 0 1 -1.13688,-1.82004 43.622669,43.622669 0 0 1 -0.42529,-0.6904 43.622669,43.622669 0 0 1 -0.3514,-0.57877 43.622669,43.622669 0 0 1 -0.004,-0.007 43.622669,43.622669 0 0 1 -0.6165,-1.2268 43.622669,43.622669 0 0 1 -0.54674,-1.10484 43.622669,43.622669 0 0 1 -0.42478,-0.87436 43.622669,43.622669 0 0 1 -0.34623,-0.74104 43.622669,43.622669 0 0 1 -0.44339,-1.15704 43.622669,43.622669 0 0 1 -0.65112,-1.73219 43.622669,43.622669 0 0 1 -0.43305,-1.23404 43.622669,43.622669 0 0 1 -0.35863,-1.31878 43.622669,43.622669 0 0 1 -0.38913,-1.46451 43.622669,43.622669 0 0 1 -0.35605,-1.47071 43.622669,43.622669 0 0 1 -0.25735,-1.54306 43.622669,43.622669 0 0 1 -0.17621,-1.09089 43.622669,43.622669 0 0 1 -0.23668,-1.70739 43.622669,43.622669 0 0 1 -0.0951,-1.42627 43.622669,43.622669 0 0 1 -0.0615,-1.02681 43.622669,43.622669 0 0 1 -0.0708,-1.8836 43.622669,43.622669 0 0 1 0.0651,-1.9787 43.622669,43.622669 0 0 1 0.0134,-0.32711 43.622669,43.622669 0 0 1 0.12816,-2.05982 43.622669,43.622669 0 0 1 0.29145,-2.17713 43.622669,43.622669 0 0 1 0.35088,-2.14147 43.622669,43.622669 0 0 1 0.4992,-2.10426 43.622669,43.622669 0 0 1 0.57206,-2.12959 43.622669,43.622669 0 0 1 0.65577,-1.89652 43.622669,43.622669 0 0 1 0.68885,-1.85777 43.622669,43.622669 0 0 1 0.85989,-1.89859 43.622669,43.622669 0 0 1 0.0486,-0.10594 43.622669,43.622669 0 0 1 0.95757,-1.95595 43.622669,43.622669 0 0 1 1.06091,-1.82987 43.622669,43.622669 0 0 1 1.18701,-1.91409 43.622669,43.622669 0 0 1 1.21543,-1.68362 43.622669,43.622669 0 0 1 1.40198,-1.82418 43.622669,43.622669 0 0 1 1.37304,-1.54925 43.622669,43.622669 0 0 1 1.24231,-1.33946 43.622669,43.622669 0 0 1 1.74356,-1.63349 43.622669,43.622669 0 0 1 1.48776,-1.31207 43.622669,43.622669 0 0 1 1.86242,-1.42471 43.622669,43.622669 0 0 1 1.64693,-1.18288 43.622669,43.622669 0 0 1 1.94768,-1.20199 43.622669,43.622669 0 0 1 1.81126,-1.04387 43.622669,43.622669 0 0 1 1.90635,-0.92759 43.622669,43.622669 0 0 1 1.73374,-0.79582 43.622669,43.622669 0 0 1 1.7322,-0.65164 43.622669,43.622669 0 0 1 0.3855,-0.14211 43.622669,43.622669 0 0 1 1.99575,-0.68471 43.622669,43.622669 0 0 1 2.04431,-0.54363 43.622669,43.622669 0 0 1 2.19935,-0.51574 43.622669,43.622669 0 0 1 1.99575,-0.32246 43.622669,43.622669 0 0 1 0.16691,-0.0233 43.622669,43.622669 0 0 1 2.159559,-0.28267 43.622669,43.622669 0 0 1 1.837607,-0.11059 43.622669,43.622669 0 0 1 2.13476,-0.0801 z m 0.047,1.26039 a 42.255286,42.255286 0 0 0 -42.255296,42.2553 42.255286,42.255286 0 0 0 42.255296,42.25529 42.255286,42.255286 0 0 0 16.73697,-3.47163 l 0.009,0.0155 a 42.255286,42.255286 0 0 0 9.29504,-5.44463 l -0.0558,-0.0961 a 42.255286,42.255286 0 0 0 15.84347,-27.62569 h 0.1354 a 42.255286,42.255286 0 0 0 0.42478,-5.6348 42.255286,42.255286 0 0 0 -0.36691,-5.13767 h -0.1173 a 42.255286,42.255286 0 0 0 -15.90291,-28.1497 l 0.0243,-0.0419 a 42.255286,42.255286 0 0 0 -9.26041,-5.50509 l -0.0475,0.0822 a 42.255286,42.255286 0 0 0 -16.71785,-3.50107 z m 0,1.03973 a 41.215849,41.215849 0 0 1 16.21452,3.33312 l -9.93273,17.20464 a 21.582627,21.582627 0 0 0 -6.14794,-0.90486 21.582627,21.582627 0 0 0 -5.404316,0.70384 L 87.419904,48.31388 a 41.215849,41.215849 0 0 1 15.299836,-2.96467 z m -24.681686,8.25944 9.9844,17.293 a 21.582627,21.582627 0 0 0 -6.1035,10.52339 h -20.05356 a 41.215849,41.215849 0 0 1 16.17265,-27.81639 z m 50.142666,0.60306 a 41.215849,41.215849 0 0 1 15.382,27.21333 h -19.77088 a 21.582627,21.582627 0 0 0 -5.55522,-9.98957 z M 102.85359,65.90144 A 20.663396,20.663396 0 0 1 123.51693,86.56478 20.663396,20.663396 0 0 1 102.85359,107.22811 20.663396,20.663396 0 0 1 82.190254,86.56478 20.663396,20.663396 0 0 1 102.85359,65.90144 Z m -0.0677,1.41748 A 19.245987,19.245987 0 0 0 83.540034,86.56426 19.245987,19.245987 0 0 0 102.78588,105.81063 19.245987,19.245987 0 0 0 122.03226,86.56426 19.245987,19.245987 0 0 0 102.78588,67.31892 Z m 0,8.17315 A 11.072252,11.072252 0 0 1 113.85808,86.56426 11.072252,11.072252 0 0 1 102.78588,97.63645 11.072252,11.072252 0 0 1 91.713694,86.56426 11.072252,11.072252 0 0 1 102.78588,75.49207 Z M 61.937224,92.19699 h 20.08869 a 21.582627,21.582627 0 0 0 6.00274,10.01696 l -9.98751,17.29868 A 41.215849,41.215849 0 0 1 61.937224,92.19699 Z m 61.725426,5.2e-4 h 19.83806 a 41.215849,41.215849 0 0 1 -15.29932,26.75236 l -9.96993,-17.2687 a 21.582627,21.582627 0 0 0 5.43119,-9.48366 z m -14.66216,15.03939 9.91723,17.17775 a 41.215849,41.215849 0 0 1 -16.19798,3.3662 41.215849,41.215849 0 0 1 -15.294666,-2.97759 l 10.02832,-17.36999 a 21.582627,21.582627 0 0 0 5.400186,0.71417 21.582627,21.582627 0 0 0 6.14691,-0.91054 z"
           id="path914"
           inkscape:connector-curvature="0" />
      </g>
      <path
         style="opacity:1;fill:#ffffff;fill-opacity:1;stroke:#000000;stroke-width:1;stroke-linecap:butt;stroke-linejoin:miter;stroke-miterlimit:4;stroke-dasharray:none;stroke-opacity:1"
         d="m 77.391019,153.38685 h 6.232217 v -0.13643 h 35.776504 l -0.062,0.13643 h 8.8437 V 139.54169 H 77.391019 Z"
         id="path1136"
         inkscape:connector-curvature="0" />
      <path
         id="path1682"
         d="M 109.70855,123.33201 H 95.999823 v 6.94789 l -0.136425,-0.16278 v 8.20312 15.06678 h 12.892232 0.95292 z m -12.135179,17.11058 a 0.65146946,0.65146946 0 0 1 0.651124,0.65112 0.65146946,0.65146946 0 0 1 -0.651124,0.65164 0.65146946,0.65146946 0 0 1 -0.651639,-0.65164 0.65146946,0.65146946 0 0 1 0.651639,-0.65112 z m 10.425199,0 a 0.65146946,0.65146946 0 0 1 0.65164,0.65112 0.65146946,0.65146946 0 0 1 -0.65164,0.65164 0.65146946,0.65146946 0 0 1 -0.65112,-0.65164 0.65146946,0.65146946 0 0 1 0.65112,-0.65112 z m -10.425199,10.58333 a 0.65146946,0.65146946 0 0 1 0.651124,0.65113 0.65146946,0.65146946 0 0 1 -0.651124,0.65163 0.65146946,0.65146946 0 0 1 -0.651639,-0.65163 0.65146946,0.65146946 0 0 1 0.651639,-0.65113 z m 10.425199,0 a 0.65146946,0.65146946 0 0 1 0.65164,0.65113 0.65146946,0.65146946 0 0 1 -0.65164,0.65163 0.65146946,0.65146946 0 0 1 -0.65112,-0.65163 0.65146946,0.65146946 0 0 1 0.65112,-0.65113 z"
         style="opacity:1;fill:#ffffff;fill-opacity:1;stroke:#000000;stroke-width:1;stroke-linecap:butt;stroke-linejoin:miter;stroke-miterlimit:4;stroke-dasharray:none;stroke-opacity:1"
         inkscape:connector-curvature="0" />
      <path
         id="path943"
         transform="scale(0.26458333)"
         d="m 362.31836,74.619141 v 61.980469 h 0.51562 v 18.04492 l 25.6504,-25.65039 26.1621,26.16211 V 74.619141 Z m 26.16406,13.726562 a 8.5714273,8.5714273 0 0 1 8.57227,8.570313 8.5714273,8.5714273 0 0 1 -8.57227,8.572264 8.5714273,8.5714273 0 0 1 -8.57031,-8.572264 8.5714273,8.5714273 0 0 1 8.57031,-8.570313 z"
         style="opacity:1;fill:#ffffff;fill-opacity:1;stroke:#000000;stroke-width:3.77952766;stroke-linecap:butt;stroke-linejoin:miter;stroke-miterlimit:4;stroke-dasharray:none;stroke-opacity:1"
         inkscape:connector-curvature="0" />
      <path
         id="path1488"
         d="m 102.78649,34.129699 -10.146667,10.146668 -1.753383,1.75338 -1.663464,1.663465 -1.370457,1.369943 7.096207,12.291237 7.837764,-7.837762 8.46822,8.468217 7.09569,-12.29124 -1.94665,-1.946651 -1.60714,-1.607137 -1.86449,-1.864487 z"
         style="opacity:1;fill:#ffffff;fill-opacity:1;stroke:#000000;stroke-width:1;stroke-linecap:butt;stroke-linejoin:miter;stroke-miterlimit:4;stroke-dasharray:none;stroke-opacity:1"
         inkscape:connector-curvature="0" />
      <path
         id="path1490"
         d="m 159.83572,91.178929 -8.13129,0.141595 a 49.101695,49.101695 0 0 1 -0.38654,2.882511 49.101695,49.101695 0 0 1 -0.60151,2.947106 49.101695,49.101695 0 0 1 -0.3576,1.684136 49.101695,49.101695 0 0 1 -0.0868,0.40876 l 8.55142,3.368783 -1.96164,4.98058 1.57096,1.57096 H 156.24266 139.95373 138.3006 137.09551 122.55118 110.11266 96.454575 84.016576 68.375669 67.07239 65.627519 49.347892 47.139759 l 1.538922,-1.53892 -1.337386,-3.07578 7.809859,-3.3967 0.571027,-0.57102 A 49.101695,49.101695 0 0 1 55.481883,99.642495 49.101695,49.101695 0 0 1 54.796139,96.970825 49.101695,49.101695 0 0 1 54.661262,96.24167 49.101695,49.101695 0 0 1 54.064399,93.024811 L 44.87478,93.185527 44.85515,92.060529 13.583674,123.33201 h 45.88867 20.039605 2.488221 6.274552 30.017798 5.27617 2.44119 21.92941 44.04951 z"
         style="opacity:1;fill:#ffffff;fill-opacity:1;stroke:#000000;stroke-width:1;stroke-linecap:butt;stroke-linejoin:miter;stroke-miterlimit:4;stroke-dasharray:none;stroke-opacity:1"
         inkscape:connector-curvature="0" />
      <g
         transform="translate(-2.2778105,-136.54952)"
         id="g1800">
        <g
           aria-label="۱۳"
           style="font-style:normal;font-weight:normal;font-size:10.58333302px;line-height:1.25;font-family:sans-serif;letter-spacing:0px;word-spacing:0px;fill:#000000;fill-opacity:1;stroke:none;stroke-width:0.26458332"
           id="text1777"
           transform="translate(51.348174,101.68934)">
          <path
             d="M 35.166979,186.45571 H 33.74071 q 0,-2.85254 -0.496094,-5.0574 -0.489203,-2.21175 -1.481391,-3.76894 l 0.930176,-1.24023 q 0.544325,0.60634 0.992187,1.64675 0.454753,1.03353 0.813043,2.43913 0.330729,1.32292 0.496094,2.64583 0.172254,1.31603 0.172254,2.59761 z"
             style="font-style:normal;font-variant:normal;font-weight:normal;font-stretch:normal;font-size:14.11111069px;font-family:'XM Traffic';-inkscape-font-specification:'XM Traffic';letter-spacing:-2.64583325px;stroke-width:0.26458332"
             id="path1783"
             inkscape:connector-curvature="0" />
          <path
             d="m 42.973566,178.19437 q 0,1.9637 -1.660536,1.9637 -0.70969,0 -1.019748,-0.53054 -0.413412,0.87505 -1.44005,0.87505 -0.124024,0 -0.241157,-0.007 -0.110243,-0.0138 -0.241157,-0.0344 0.461643,1.14377 0.70969,2.6665 0.254937,1.51585 0.254937,3.32797 h -1.343587 q 0,-2.28066 -0.551215,-4.47174 -0.551216,-2.19797 -1.681207,-4.3546 l 0.971517,-1.24712 q 0.103353,0.13091 0.330729,0.57877 0.227376,0.44787 0.558105,1.13689 0.234267,0.44786 0.489204,0.6959 0.261827,0.24805 0.523655,0.24805 0.902615,0 0.902615,-1.21956 v -1.04042 h 0.971516 l 0.01378,1.20578 q 0.01378,0.99219 0.792372,0.99219 0.640787,0 0.640787,-0.73725 0,-0.22049 -0.06201,-0.49609 -0.05512,-0.27561 -0.186035,-0.60634 l 0.978407,-0.55122 q 0.289388,0.88884 0.289388,1.60542 z"
             style="font-style:normal;font-variant:normal;font-weight:normal;font-stretch:normal;font-size:14.11111069px;font-family:'XM Traffic';-inkscape-font-specification:'XM Traffic';letter-spacing:-2.64583325px;stroke-width:0.26458332"
             id="path1785"
             inkscape:connector-curvature="0" />
        </g>
        <g
           transform="translate(84.043115,101.50035)"
           id="g1792"
           style="font-style:normal;font-weight:normal;font-size:10.58333302px;line-height:1.25;font-family:sans-serif;letter-spacing:0px;word-spacing:0px;fill:#000000;fill-opacity:1;stroke:none;stroke-width:0.26458332"
           aria-label="۱۳">
          <path
             inkscape:connector-curvature="0"
             id="path1788"
             style="font-style:normal;font-variant:normal;font-weight:normal;font-stretch:normal;font-size:14.11111069px;font-family:'XM Traffic';-inkscape-font-specification:'XM Traffic';letter-spacing:-2.64583325px;stroke-width:0.26458332"
             d="M 35.166979,186.45571 H 33.74071 q 0,-2.85254 -0.496094,-5.0574 -0.489203,-2.21175 -1.481391,-3.76894 l 0.930176,-1.24023 q 0.544325,0.60634 0.992187,1.64675 0.454753,1.03353 0.813043,2.43913 0.330729,1.32292 0.496094,2.64583 0.172254,1.31603 0.172254,2.59761 z" />
          <path
             inkscape:connector-curvature="0"
             id="path1790"
             style="font-style:normal;font-variant:normal;font-weight:normal;font-stretch:normal;font-size:14.11111069px;font-family:'XM Traffic';-inkscape-font-specification:'XM Traffic';letter-spacing:-2.64583325px;stroke-width:0.26458332"
             d="m 42.973566,178.19437 q 0,1.9637 -1.660536,1.9637 -0.70969,0 -1.019748,-0.53054 -0.413412,0.87505 -1.44005,0.87505 -0.124024,0 -0.241157,-0.007 -0.110243,-0.0138 -0.241157,-0.0344 0.461643,1.14377 0.70969,2.6665 0.254937,1.51585 0.254937,3.32797 h -1.343587 q 0,-2.28066 -0.551215,-4.47174 -0.551216,-2.19797 -1.681207,-4.3546 l 0.971517,-1.24712 q 0.103353,0.13091 0.330729,0.57877 0.227376,0.44787 0.558105,1.13689 0.234267,0.44786 0.489204,0.6959 0.261827,0.24805 0.523655,0.24805 0.902615,0 0.902615,-1.21956 v -1.04042 h 0.971516 l 0.01378,1.20578 q 0.01378,0.99219 0.792372,0.99219 0.640787,0 0.640787,-0.73725 0,-0.22049 -0.06201,-0.49609 -0.05512,-0.27561 -0.186035,-0.60634 l 0.978407,-0.55122 q 0.289388,0.88884 0.289388,1.60542 z" />
        </g>
      </g>
    </g>
  </g>
</svg>
